<svg xmlns="http://www.w3.org/2000/svg" viewBox="0 0 48 48">
<defs>
    <style>.cls-1 { fill: #ffffff; }</style>
</defs>
<title>Asset 19ldpi</title>
<g id="Layer_2" data-name="Layer 2">
    <g id="layer_1-2" data-name="layer 1">
        <path class="cls-1" d="M24,42a17,17,0,1,1,14.84-8.7l-1.75-1a15,15,0,1,0-4.73,5.13l1.12,1.66A16.88,16.88,0,0,1,24,42Z"/>
        <path class="cls-1" d="M24,42c-5.61,0-10-7.47-10-17S18.39,8,24,8s10,7.47,10,17a28.56,28.56,0,0,1-.64,6.06l-2-.43A25.84,25.84,0,0,0,32,25c0-8.13-3.66-15-8-15s-8,6.87-8,15,3.66,15,8,15Z"/>
        <rect class="cls-1" x="9" y="19" width="30" height="2"/>
        <rect class="cls-1" x="9" y="29" width="19" height="2"/>
        <rect class="cls-1" x="23" y="9" width="2" height="32"/>
        <rect class="cls-1" x="4" y="4" width="2" height="2"/>
        <rect class="cls-1" x="8" y="4" width="2" height="2"/>
        <rect class="cls-1" x="12" y="4" width="2" height="2"/>
        <rect class="cls-1" x="35" y="8" width="12" height="2"/>
        <rect class="cls-1" x="1" y="8" width="23" height="2"/>
        <path class="cls-1" d="M47,48H40V46h6V40h2v7A1,1,0,0,1,47,48Z"/>
        <path class="cls-1" d="M32,48H1a1,1,0,0,1-1-1V1A1,1,0,0,1,1,0H47a1,1,0,0,1,1,1V32H46V2H2V46H32Z"/>
        <path class="cls-1" d="M36,48h0a1,1,0,0,1-.93-.67l-6-17a1,1,0,0,1,1.27-1.27l17,6A1,1,0,0,1,48,36a1,1,0,0,1-.65.95l-7.57,2.84-2.84,7.57A1,1,0,0,1,36,48ZM31.64,31.64,36,44.08l2-5.43a1.07,1.07,0,0,1,.59-.59l5.43-2Z"/>
    </g>
</g>
</svg>